# This file uses centimeters as units for non-parametric coordinates.

mtllib trackerbox.mtl
g default
v -0.150000 -0.150000 0.010215
v 0.150000 -0.150000 0.010215
v -0.150000 0.150000 0.010215
v 0.150000 0.150000 0.010215
v -0.150000 0.150000 -0.010215
v 0.150000 0.150000 -0.010215
v -0.150000 -0.150000 -0.010215
v 0.150000 -0.150000 -0.010215
vt 0.222000 0.464075
vt 0.374748 0.464075
vt 0.374748 0.922317
vt 0.222000 0.922317
vt 0.063117 0.464075
vt 0.215865 0.464075
vt 0.215865 0.922317
vt 0.063117 0.922317
vt 0.467987 0.460083
vt 0.467987 0.001841
vt 0.620734 0.001841
vt 0.620734 0.460083
vt 0.380883 0.922317
vt 0.380883 0.464075
vt 0.533630 0.464075
vt 0.533630 0.922317
vt 0.001992 0.001841
vt 0.460234 0.001841
vt 0.460234 0.460083
vt 0.001992 0.460083
vt 0.539766 0.464075
vt 0.998008 0.464075
vt 0.998008 0.922317
vt 0.539766 0.922317
vn 0.000000 0.000000 1.000000
vn 0.000000 0.000000 1.000000
vn 0.000000 0.000000 1.000000
vn 0.000000 0.000000 1.000000
vn 0.000000 1.000000 0.000000
vn 0.000000 1.000000 0.000000
vn 0.000000 1.000000 0.000000
vn 0.000000 1.000000 0.000000
vn 0.000000 0.000000 -1.000000
vn 0.000000 0.000000 -1.000000
vn 0.000000 0.000000 -1.000000
vn 0.000000 0.000000 -1.000000
vn 0.000000 -1.000000 0.000000
vn 0.000000 -1.000000 0.000000
vn 0.000000 -1.000000 0.000000
vn 0.000000 -1.000000 0.000000
vn 1.000000 0.000000 0.000000
vn 1.000000 0.000000 0.000000
vn 1.000000 0.000000 0.000000
vn 1.000000 0.000000 0.000000
vn -1.000000 0.000000 0.000000
vn -1.000000 0.000000 0.000000
vn -1.000000 0.000000 0.000000
vn -1.000000 0.000000 0.000000
s off
g pCube1
usemtl lambert2SG
f 1/17/1 2/18/2 4/19/3 3/20/4
f 3/9/5 4/10/6 6/11/7 5/12/8
f 5/21/9 6/22/10 8/23/11 7/24/12
f 7/13/13 8/14/14 2/15/15 1/16/16
f 2/1/17 8/2/18 6/3/19 4/4/20
f 7/5/21 1/6/22 3/7/23 5/8/24
