# This file uses centimeters as units for non-parametric coordinates.

mtllib Turret.mtl
g Turret2:default1
v 1.339245 -0.338472 -2.133588
v -1.429945 -0.338472 -2.133588
v 1.071479 1.495693 -2.133588
v -1.210234 1.495693 -2.133588
v 1.071479 1.495693 1.241222
v -1.210234 1.495693 1.241222
v 1.339245 -0.338472 1.241222
v -1.429945 -0.338472 1.241222
v -0.798744 1.495693 -2.133588
v -0.798744 1.495693 1.241222
v -0.798744 -0.338472 1.241222
v -0.798744 -0.338472 -2.133588
v 0.694301 1.495693 -2.133588
v 0.694301 1.495693 1.241222
v 0.694301 -0.338472 1.178704
v 0.694301 -0.338472 -2.133588
v -1.210234 0.847243 1.241222
v -0.798744 0.847243 1.241222
v 0.694301 0.847243 1.241222
v 1.071479 0.847243 1.241222
v 1.071479 0.847243 -2.133588
v 0.694301 0.847243 -2.133588
v -0.798744 0.847243 -2.133588
v -1.210234 0.847243 -2.133588
v -1.429945 0.221367 1.241222
v -0.798744 0.221367 1.241222
v 0.694301 0.221367 1.241222
v 1.339245 0.221367 1.241222
v 1.339245 0.221367 -2.133588
v 0.694301 0.221367 -2.133588
v -0.798744 0.221367 -2.133588
v -1.429945 0.221367 -2.133588
v -0.664199 1.495693 1.241222
v -0.664199 0.847243 1.241222
v -0.664199 0.221367 1.241222
v -0.664199 -0.338472 1.241222
v -0.664199 -0.338472 -2.133588
v -0.664199 0.221367 -2.133588
v -0.664199 0.847243 -2.133588
v -0.664199 1.495693 -2.133588
v 0.587043 1.495693 1.241222
v 0.587043 0.847243 1.241222
v 0.587043 0.221367 1.241222
v 0.587043 -0.338472 1.178704
v 0.587043 -0.338472 -2.196108
v 0.587043 0.221367 -2.133589
v 0.587043 0.847243 -2.133589
v 0.587043 1.495693 -2.133589
v 0.694301 1.740627 0.865900
v 0.694301 0.847243 0.865900
v 0.587043 1.740627 0.865900
v 0.587043 0.847243 0.865900
v 0.694301 0.221367 0.865900
v 0.587043 0.221367 0.865900
v 0.694301 -0.338472 0.865900
v 0.587042 -0.338472 0.865900
v -0.664199 1.740627 0.865900
v -0.664199 0.847243 0.865900
v -0.798744 1.740627 0.865900
v -0.798744 0.847243 0.865900
v -0.664199 0.221367 0.865900
v -0.798744 0.221367 0.865900
v -0.664199 -0.338472 0.865900
v -0.798744 -0.338472 0.865900
vt 0.665194 0.779170
vt 0.665194 0.729538
vt 0.750521 0.779170
vt 0.750521 0.729538
vt 0.374437 0.001946
vt 0.424068 0.001946
vt 0.374437 0.446025
vt 0.424068 0.446025
vt 0.187225 0.458243
vt 0.236856 0.458243
vt 0.187225 0.543570
vt 0.236856 0.543570
vt 0.001992 0.001946
vt 0.086858 0.010172
vt 0.001992 0.446025
vt 0.086858 0.446025
vt 0.838395 0.446025
vt 0.838395 0.001946
vt 0.923722 0.446025
vt 0.923722 0.001946
vt 0.912681 0.894095
vt 0.912681 0.450016
vt 0.998008 0.894095
vt 0.998008 0.450016
vt 0.620533 0.001946
vt 0.674679 0.001946
vt 0.620533 0.446025
vt 0.674679 0.446025
vt 0.062798 0.543570
vt 0.062798 0.458243
vt 0.116944 0.543570
vt 0.116944 0.458243
vt 0.283322 0.446025
vt 0.283322 0.001946
vt 0.366380 0.446025
vt 0.366380 0.001946
vt 0.750521 0.533074
vt 0.665194 0.533074
vt 0.750521 0.478927
vt 0.665194 0.478927
vt 0.438182 0.001946
vt 0.438182 0.446025
vt 0.488921 0.567574
vt 0.488921 0.450016
vt 0.503035 0.567574
vt 0.503035 0.450016
vt 0.100972 0.454252
vt 0.100972 0.010172
vt 0.750521 0.715425
vt 0.665194 0.715425
vt 0.062798 0.625927
vt 0.145855 0.625927
vt 0.488921 0.649930
vt 0.503035 0.649930
vt 0.236856 0.625927
vt 0.151990 0.625927
vt 0.830324 0.894095
vt 0.830324 0.450016
vt 0.582838 0.814404
vt 0.582838 0.729538
vt 0.582838 0.715425
vt 0.582838 0.533074
vt 0.582838 0.450016
vt 0.756038 0.446025
vt 0.756038 0.001946
vt 0.062798 0.699594
vt 0.145855 0.699594
vt 0.488921 0.723598
vt 0.503035 0.723598
vt 0.151990 0.699594
vt 0.236856 0.699594
vt 0.756657 0.894095
vt 0.756657 0.450016
vt 0.509170 0.814404
vt 0.509170 0.729538
vt 0.509170 0.715425
vt 0.509170 0.450016
vt 0.509170 0.533074
vt 0.682371 0.446025
vt 0.682371 0.001946
vt 0.465082 0.567574
vt 0.465082 0.450016
vt 0.482786 0.567574
vt 0.482786 0.450016
vt 0.465082 0.649930
vt 0.482786 0.649930
vt 0.465082 0.723598
vt 0.482786 0.723598
vt 0.265618 0.446025
vt 0.265618 0.001946
vt 0.582838 0.550778
vt 0.509170 0.550778
vt 0.665194 0.550778
vt 0.750521 0.550778
vt 0.602828 0.446025
vt 0.602828 0.001946
vt 0.001992 0.788913
vt 0.001992 0.703586
vt 0.166638 0.788913
vt 0.166638 0.703586
vt 0.001992 0.871270
vt 0.166638 0.871270
vt 0.001992 0.944937
vt 0.166638 0.944937
vt 0.458946 0.606040
vt 0.458946 0.691368
vt 0.409559 0.606040
vt 0.409559 0.723598
vt 0.298428 0.735816
vt 0.312541 0.735816
vt 0.298428 0.785203
vt 0.312541 0.785203
vt 0.354037 0.614267
vt 0.403424 0.614267
vt 0.354037 0.699594
vt 0.403424 0.731824
vt 0.458946 0.523684
vt 0.409559 0.523684
vt 0.354037 0.531910
vt 0.403424 0.531910
vt 0.450720 0.450016
vt 0.409559 0.450016
vt 0.362263 0.458243
vt 0.403424 0.458243
vt 0.384653 0.776976
vt 0.370539 0.776976
vt 0.384653 0.735816
vt 0.370539 0.735816
vt 0.347901 0.614267
vt 0.347901 0.699594
vt 0.298514 0.614267
vt 0.298514 0.731824
vt 0.319866 0.735816
vt 0.337570 0.735816
vt 0.319866 0.785203
vt 0.337570 0.785203
vt 0.242992 0.614267
vt 0.292379 0.614267
vt 0.242992 0.699594
vt 0.292379 0.731824
vt 0.347901 0.531910
vt 0.298514 0.531910
vt 0.242992 0.531910
vt 0.292379 0.531910
vt 0.347901 0.458243
vt 0.298514 0.458243
vt 0.242992 0.458243
vt 0.292379 0.458243
vt 0.362907 0.785203
vt 0.345203 0.785203
vt 0.362907 0.735816
vt 0.345203 0.735816
vn 0.000000 0.000000 -1.000000
vn 0.000001 0.000000 -1.000000
vn 0.000000 0.000000 -1.000000
vn 0.000000 0.000000 -1.000000
vn 0.000001 0.000000 -1.000000
vn 0.000001 0.000000 -1.000000
vn 0.000000 1.000000 -0.000000
vn 0.000000 1.000000 -0.000000
vn 0.000000 1.000000 -0.000000
vn 0.000000 1.000000 -0.000000
vn 0.000000 1.000000 -0.000000
vn 0.000000 1.000000 -0.000000
vn -0.000000 0.000000 1.000000
vn -0.000000 0.000000 1.000000
vn -0.000000 0.000000 1.000000
vn -0.000000 0.000000 1.000000
vn -0.000000 0.000000 1.000000
vn -0.000000 0.000000 1.000000
vn 0.000000 -1.000000 0.000000
vn 0.000000 -1.000000 0.000000
vn 0.000000 -1.000000 0.000000
vn 0.000000 -1.000000 0.000000
vn 0.000000 -1.000000 0.000000
vn 0.000000 -1.000000 0.000000
vn -0.985460 0.169906 -0.000000
vn -0.985460 0.169906 -0.000000
vn -1.000000 0.000000 -0.000000
vn -1.000000 0.000000 -0.000000
vn -0.985460 0.169906 -0.000000
vn -1.000000 0.000000 -0.000000
vn 0.978629 0.205633 0.000000
vn 0.978629 0.205633 0.000000
vn 1.000000 0.000000 0.000000
vn 1.000000 0.000000 0.000000
vn 0.978629 0.205633 0.000000
vn 1.000000 0.000000 0.000000
vn -0.000001 1.000000 -0.000000
vn 0.000000 1.000000 -0.000000
vn 0.000000 1.000000 -0.000000
vn 0.000000 1.000000 -0.000000
vn 0.000000 1.000000 -0.000000
vn 0.000000 1.000000 -0.000000
vn -0.000000 0.000000 1.000000
vn -0.000000 0.000000 1.000000
vn -0.000000 0.000000 1.000000
vn -0.000000 0.000000 1.000000
vn -0.000000 0.000000 1.000000
vn -0.000000 0.000000 1.000000
vn 0.000000 -1.000000 0.000000
vn 0.000000 -1.000000 0.000000
vn 0.000000 -1.000000 0.000000
vn 0.000000 -1.000000 0.000000
vn 0.000000 -1.000000 0.000000
vn 0.000000 -1.000000 0.000000
vn 0.000000 0.000000 -1.000000
vn 0.000000 0.000000 -1.000000
vn 0.000000 0.000000 -1.000000
vn 0.000000 0.000000 -1.000000
vn 0.000000 0.000000 -1.000000
vn 0.000000 0.000000 -1.000000
vn 0.000000 1.000000 -0.000000
vn 0.000000 1.000000 0.000000
vn 0.000000 1.000000 -0.000000
vn 0.000000 1.000000 -0.000000
vn 0.000000 1.000000 0.000000
vn 0.000000 1.000000 -0.000000
vn -0.000000 0.000000 1.000000
vn -0.000000 0.000000 1.000000
vn -0.000000 0.000000 1.000000
vn -0.000000 0.000000 1.000000
vn -0.000000 0.000000 1.000000
vn -0.000000 0.000000 1.000000
vn 0.000000 -1.000000 0.000000
vn 0.000000 -1.000000 0.000000
vn 0.000000 -1.000000 0.000000
vn 0.000000 -1.000000 0.000000
vn 0.000000 -1.000000 0.000000
vn 0.000000 -1.000000 0.000000
vn 0.000001 0.000000 -1.000000
vn 0.000001 0.000000 -1.000000
vn 0.000000 0.000000 -1.000000
vn 0.000000 0.000000 -1.000000
vn 0.000001 0.000000 -1.000000
vn 0.000000 0.000000 -1.000000
vn -0.000000 0.000000 1.000000
vn -0.000000 0.000000 1.000000
vn -0.000000 0.000000 1.000000
vn -0.000000 0.000000 1.000000
vn -0.000000 0.000000 1.000000
vn -0.000000 0.000000 1.000000
vn -0.000000 0.000000 1.000000
vn -0.000000 0.000000 1.000000
vn -0.000000 0.000000 1.000000
vn -0.000000 0.000000 1.000000
vn -0.000000 0.000000 1.000000
vn -0.000000 0.000000 1.000000
vn -0.000000 0.000000 1.000000
vn -0.000000 0.000000 1.000000
vn -0.000000 0.000000 1.000000
vn -0.000000 0.000000 1.000000
vn -0.000000 0.000000 1.000000
vn -0.000000 0.000000 1.000000
vn 0.975437 0.220280 0.000000
vn 0.975437 0.220280 0.000000
vn 0.978629 0.205633 0.000000
vn 0.978629 0.205633 0.000000
vn 0.975437 0.220280 0.000000
vn 0.978629 0.205633 0.000000
vn 0.000000 0.000000 -1.000000
vn 0.000001 0.000000 -1.000000
vn 0.000000 0.000000 -1.000000
vn 0.000000 0.000000 -1.000000
vn 0.000001 0.000000 -1.000000
vn 0.000001 0.000000 -1.000000
vn 0.000000 0.000000 -1.000000
vn 0.000001 0.000000 -1.000000
vn 0.000000 0.000000 -1.000000
vn 0.000000 0.000000 -1.000000
vn 0.000001 0.000000 -1.000000
vn 0.000001 0.000000 -1.000000
vn 0.000000 0.000000 -1.000000
vn 0.000000 0.000000 -1.000000
vn 0.000000 0.000000 -1.000000
vn 0.000000 0.000000 -1.000000
vn 0.000000 0.000000 -1.000000
vn 0.000000 0.000000 -1.000000
vn -0.983262 0.182196 -0.000000
vn -0.983262 0.182196 -0.000000
vn -0.985460 0.169906 -0.000000
vn -0.985460 0.169906 -0.000000
vn -0.983262 0.182196 -0.000000
vn -0.985460 0.169906 -0.000000
vn -0.000000 0.000000 1.000000
vn -0.000000 0.000000 1.000000
vn -0.000000 0.000000 1.000000
vn -0.000000 0.000000 1.000000
vn -0.000000 0.000000 1.000000
vn -0.000000 0.000000 1.000000
vn -0.000000 0.000000 1.000000
vn -0.000000 0.000000 1.000000
vn -0.000000 0.000000 1.000000
vn -0.000000 0.000000 1.000000
vn -0.000000 0.000000 1.000000
vn -0.000000 0.000000 1.000000
vn -0.000000 0.000000 1.000000
vn -0.000000 0.000000 1.000000
vn -0.000000 0.000000 1.000000
vn -0.000000 0.000000 1.000000
vn -0.000000 0.000000 1.000000
vn -0.000000 0.000000 1.000000
vn 1.000000 0.000000 0.000000
vn 1.000000 0.000000 0.000000
vn 0.975437 0.220280 0.000000
vn 0.975437 0.220280 0.000000
vn 1.000000 0.000000 0.000000
vn 0.975437 0.220280 0.000000
vn 0.000000 0.000000 -1.000000
vn 0.000001 0.000000 -1.000000
vn 0.000000 0.000000 -1.000000
vn 0.000000 0.000000 -1.000000
vn 0.000001 0.000000 -1.000000
vn 0.000001 0.000000 -1.000000
vn 0.000000 0.000000 -1.000000
vn 0.000001 0.000000 -1.000000
vn 0.000000 0.000000 -1.000000
vn 0.000000 0.000000 -1.000000
vn 0.000001 0.000000 -1.000000
vn 0.000001 0.000000 -1.000000
vn 0.000000 0.000000 -1.000000
vn 0.000000 0.000000 -1.000000
vn 0.000000 0.000000 -1.000000
vn 0.000000 0.000000 -1.000000
vn 0.000000 0.000000 -1.000000
vn 0.000000 0.000000 -1.000000
vn -1.000000 0.000000 -0.000000
vn -1.000000 0.000000 -0.000000
vn -0.983262 0.182196 -0.000000
vn -0.983262 0.182196 -0.000000
vn -1.000000 0.000000 -0.000000
vn -0.983262 0.182196 -0.000000
vn -0.000000 0.000000 1.000000
vn -0.000000 0.000000 1.000000
vn -0.000000 0.000000 1.000000
vn -0.000000 0.000000 1.000000
vn -0.000000 0.000000 1.000000
vn -0.000000 0.000000 1.000000
vn -0.000000 0.000000 1.000000
vn -0.000000 0.000000 1.000000
vn -0.000000 0.000000 1.000000
vn -0.000000 0.000000 1.000000
vn -0.000000 0.000000 1.000000
vn -0.000000 0.000000 1.000000
vn -0.000000 0.000000 1.000000
vn -0.000000 0.000000 1.000000
vn -0.000000 0.000000 1.000000
vn -0.000000 0.000000 1.000000
vn -0.000000 0.000000 1.000000
vn -0.000000 0.000000 1.000000
vn 0.000000 -1.000000 0.000000
vn 0.000000 -1.000000 0.000000
vn 0.000000 -1.000000 0.000000
vn 0.000000 -1.000000 0.000000
vn 0.000000 -1.000000 0.000000
vn 0.000000 -1.000000 0.000000
vn 0.000000 0.000000 -1.000000
vn 0.000000 0.000000 -1.000000
vn 0.000000 0.000000 -1.000000
vn 0.000000 0.000000 -1.000000
vn 0.000000 0.000000 -1.000000
vn 0.000000 0.000000 -1.000000
vn 0.000000 0.000000 -1.000000
vn 0.000000 0.000000 -1.000000
vn 0.000000 0.000000 -1.000000
vn 0.000000 0.000000 -1.000000
vn 0.000000 0.000000 -1.000000
vn 0.000000 0.000000 -1.000000
vn 0.000000 0.000000 -1.000000
vn 0.000000 0.000000 -1.000000
vn 0.000000 0.000000 -1.000000
vn 0.000000 0.000000 -1.000000
vn 0.000000 0.000000 -1.000000
vn 0.000000 0.000000 -1.000000
vn 0.000000 1.000000 0.000000
vn 0.000000 1.000000 0.000000
vn 0.000000 1.000000 -0.000000
vn 0.000000 1.000000 -0.000000
vn 0.000000 1.000000 0.000000
vn -0.000001 1.000000 -0.000000
vn -0.000000 0.000000 1.000000
vn -0.000000 0.000000 1.000000
vn -0.000000 0.000000 1.000000
vn -0.000000 0.000000 1.000000
vn -0.000000 0.000000 1.000000
vn -0.000000 0.000000 1.000000
vn -0.000000 0.000000 1.000000
vn -0.000000 0.000000 1.000000
vn -0.000000 0.000000 1.000000
vn -0.000000 0.000000 1.000000
vn -0.000000 0.000000 1.000000
vn -0.000000 0.000000 1.000000
vn -0.000000 0.000000 1.000000
vn -0.000000 0.000000 1.000000
vn -0.000000 0.000000 1.000000
vn -0.000000 0.000000 1.000000
vn -0.000000 0.000000 1.000000
vn -0.000000 0.000000 1.000000
vn 0.000000 -1.000000 0.000000
vn 0.000000 -1.000000 0.000000
vn 0.000000 -1.000000 0.000000
vn 0.000000 -1.000000 0.000000
vn 0.000000 -1.000000 0.000000
vn 0.000000 -1.000000 0.000000
vn 0.000000 0.000000 -1.000000
vn 0.000000 0.000000 -1.000000
vn 0.000000 0.000000 -1.000000
vn 0.000000 0.000000 -1.000000
vn 0.000000 0.000000 -1.000000
vn 0.000000 0.000000 -1.000000
vn 0.000000 0.000000 -1.000000
vn 0.000000 0.000000 -1.000000
vn 0.000000 0.000000 -1.000000
vn 0.000000 0.000000 -1.000000
vn 0.000000 0.000000 -1.000000
vn 0.000000 0.000000 -1.000000
vn 0.000000 0.000000 -1.000000
vn 0.000000 0.000000 -1.000000
vn 0.000000 0.000000 -1.000000
vn 0.000000 0.000000 -1.000000
vn 0.000000 0.000000 -1.000000
vn 0.000000 0.000000 -1.000000
vn 0.000000 1.000000 -0.000000
vn 0.000000 1.000000 0.000000
vn 0.000000 1.000000 0.000000
vn 0.000000 1.000000 0.000000
vn 0.000000 1.000000 0.000000
vn 0.000000 1.000000 0.000000
vn -1.000000 0.000000 0.000001
vn -1.000000 0.000000 0.000001
vn -1.000000 0.000000 0.000001
vn -1.000000 0.000000 0.000001
vn -1.000000 0.000000 0.000001
vn -1.000000 0.000000 0.000001
vn -0.000001 -0.837448 -0.546516
vn -0.000001 -0.837448 -0.546516
vn 0.000000 -0.837449 -0.546516
vn 0.000000 -0.837449 -0.546516
vn -0.000001 -0.837448 -0.546516
vn 0.000000 -0.837448 -0.546516
vn 1.000000 0.000000 -0.000001
vn 1.000000 0.000000 -0.000001
vn 1.000000 0.000000 -0.000001
vn 1.000000 0.000000 -0.000001
vn 1.000000 0.000000 -0.000001
vn 1.000000 0.000000 -0.000001
vn -1.000000 0.000000 0.000001
vn -1.000000 0.000000 0.000001
vn -1.000000 0.000000 0.000001
vn -1.000000 0.000000 0.000001
vn -1.000000 0.000000 0.000001
vn -1.000000 0.000000 0.000001
vn 1.000000 0.000000 -0.000001
vn 1.000000 0.000000 -0.000001
vn 1.000000 0.000000 -0.000001
vn 1.000000 0.000000 -0.000001
vn 1.000000 0.000000 -0.000001
vn 1.000000 0.000000 -0.000001
vn -1.000000 0.000000 0.000002
vn -1.000000 0.000000 0.000001
vn -1.000000 0.000000 0.000002
vn -1.000000 0.000000 0.000002
vn -1.000000 0.000000 0.000001
vn -1.000000 0.000000 0.000001
vn 1.000000 0.000000 -0.000001
vn 1.000000 0.000000 -0.000002
vn 1.000000 0.000000 -0.000001
vn 1.000000 0.000000 -0.000001
vn 1.000000 0.000000 -0.000002
vn 1.000000 -0.000001 -0.000002
vn 0.000000 1.000000 -0.000000
vn 0.000000 1.000000 -0.000000
vn 0.000000 1.000000 -0.000000
vn 0.000000 1.000000 -0.000000
vn 0.000000 1.000000 -0.000000
vn 0.000000 1.000000 -0.000000
vn -1.000000 0.000000 -0.000000
vn -1.000000 0.000000 -0.000001
vn -1.000000 0.000000 -0.000000
vn -1.000000 0.000000 -0.000000
vn -1.000000 0.000000 -0.000001
vn -1.000000 0.000000 -0.000001
vn 0.000001 -0.837448 -0.546517
vn 0.000001 -0.837448 -0.546517
vn 0.000002 -0.837448 -0.546517
vn 0.000002 -0.837448 -0.546517
vn 0.000001 -0.837448 -0.546517
vn 0.000002 -0.837448 -0.546517
vn 1.000000 0.000000 0.000000
vn 1.000000 0.000000 0.000000
vn 1.000000 0.000000 0.000000
vn 1.000000 0.000000 0.000000
vn 1.000000 0.000000 0.000000
vn 1.000000 0.000000 0.000000
vn -1.000000 -0.000000 -0.000000
vn -1.000000 0.000000 -0.000000
vn -1.000000 -0.000000 -0.000000
vn -1.000000 -0.000000 -0.000000
vn -1.000000 0.000000 -0.000000
vn -1.000000 0.000000 -0.000000
vn 1.000000 0.000000 0.000000
vn 1.000000 0.000000 0.000000
vn 1.000000 0.000000 0.000000
vn 1.000000 0.000000 0.000000
vn 1.000000 0.000000 0.000000
vn 1.000000 0.000000 0.000000
vn -1.000000 0.000000 -0.000000
vn -1.000000 -0.000000 -0.000000
vn -1.000000 -0.000000 -0.000000
vn -1.000000 -0.000000 -0.000000
vn -1.000000 -0.000000 -0.000000
vn -1.000000 -0.000000 -0.000000
vn 1.000000 0.000000 0.000000
vn 1.000000 0.000000 0.000000
vn 1.000000 0.000000 0.000000
vn 1.000000 0.000000 0.000000
vn 1.000000 0.000000 0.000000
vn 1.000000 0.000000 0.000000
vn 0.000001 1.000000 0.000000
vn 0.000001 1.000000 0.000000
vn 0.000001 1.000000 0.000000
vn 0.000001 1.000000 0.000000
vn 0.000001 1.000000 0.000000
vn 0.000001 1.000000 0.000000
s off
g Turret2:polySurface3 Turret2:polySurface13 Turret2:polySurface1
usemtl Turret2:initialShadingGroup
f 21/1/1 22/2/2 3/3/3
f 3/3/4 22/2/5 13/4/6
f 3/5/7 13/6/8 5/7/9
f 5/7/10 13/6/11 14/8/12
f 5/9/13 14/10/14 20/11/15
f 20/11/16 14/10/17 19/12/18
f 7/13/19 15/14/20 1/15/21
f 1/15/22 15/14/23 16/16/24
f 24/17/25 17/18/26 4/19/27
f 4/19/28 17/18/29 6/20/30
f 20/21/31 21/22/32 5/23/33
f 5/23/34 21/22/35 3/24/36
f 9/25/37 4/26/38 10/27/39
f 10/27/40 4/26/41 6/28/42
f 18/29/43 10/30/44 17/31/45
f 17/31/46 10/30/47 6/32/48
f 12/33/49 11/34/50 2/35/51
f 2/35/52 11/34/53 8/36/54
f 9/37/55 23/38/56 4/39/57
f 4/39/58 23/38/59 24/40/60
f 13/6/61 48/41/62 14/8/63
f 14/8/64 48/41/65 41/42/66
f 50/43/67 49/44/68 52/45/69
f 52/45/70 49/44/71 51/46/72
f 16/16/73 15/14/74 45/47/75
f 45/47/76 15/14/77 44/48/78
f 13/4/79 22/2/80 48/49/81
f 48/49/82 22/2/83 47/50/84
f 18/29/85 17/31/86 26/51/87
f 26/51/88 17/31/89 25/52/90
f 53/53/91 50/43/92 54/54/93
f 54/54/94 50/43/95 52/45/96
f 19/12/97 27/55/98 20/11/99
f 20/11/100 27/55/101 28/56/102
f 28/57/103 29/58/104 20/21/105
f 20/21/106 29/58/107 21/22/108
f 29/59/109 30/60/110 21/1/111
f 21/1/112 30/60/113 22/2/114
f 47/50/115 22/2/116 46/61/117
f 46/61/118 22/2/119 30/60/120
f 23/38/121 31/62/122 24/40/123
f 24/40/124 31/62/125 32/63/126
f 32/64/127 25/65/128 24/17/129
f 24/17/130 25/65/131 17/18/132
f 11/66/133 26/51/134 8/67/135
f 8/67/136 26/51/137 25/52/138
f 55/68/139 53/53/140 56/69/141
f 56/69/142 53/53/143 54/54/144
f 28/56/145 27/55/146 7/70/147
f 7/70/148 27/55/149 15/71/150
f 7/72/151 1/73/152 28/57/153
f 28/57/154 1/73/155 29/58/156
f 1/74/157 16/75/158 29/59/159
f 29/59/160 16/75/161 30/60/162
f 46/61/163 30/60/164 45/76/165
f 45/76/166 30/60/167 16/75/168
f 32/63/169 31/62/170 2/77/171
f 2/77/172 31/62/173 12/78/174
f 2/79/175 8/80/176 32/64/177
f 32/64/178 8/80/179 25/65/180
f 58/81/181 57/82/182 60/83/183
f 60/83/184 57/82/185 59/84/186
f 61/85/187 58/81/188 62/86/189
f 62/86/190 58/81/191 60/83/192
f 63/87/193 61/85/194 64/88/195
f 64/88/196 61/85/197 62/86/198
f 37/89/199 36/90/200 12/33/201
f 12/33/202 36/90/203 11/34/204
f 31/62/205 38/91/206 12/78/207
f 12/78/208 38/91/209 37/92/210
f 23/38/211 39/93/212 31/62/213
f 31/62/214 39/93/215 38/91/216
f 40/94/217 39/93/218 9/37/219
f 9/37/220 39/93/221 23/38/222
f 33/95/223 40/96/224 10/27/225
f 10/27/226 40/96/227 9/25/228
f 42/97/229 41/98/230 34/99/231
f 34/99/232 41/98/233 33/100/234
f 43/101/235 42/97/236 35/102/237
f 35/102/238 42/97/239 34/99/240
f 44/103/241 43/101/242 36/104/243
f 36/104/244 43/101/245 35/102/246
f 45/47/247 44/48/248 37/89/249
f 37/89/250 44/48/251 36/90/252
f 38/91/253 46/61/254 37/92/255
f 37/92/256 46/61/257 45/76/258
f 39/93/259 47/50/260 38/91/261
f 38/91/262 47/50/263 46/61/264
f 48/49/265 47/50/266 40/94/267
f 40/94/268 47/50/269 39/93/270
f 41/42/271 48/41/272 33/95/273
f 33/95/274 48/41/275 40/96/276
f 19/105/277 14/106/278 50/107/279
f 50/107/280 14/106/281 49/108/282
f 14/109/283 41/110/284 49/111/285
f 49/111/286 41/110/287 51/112/288
f 42/113/289 52/114/290 41/115/291
f 41/115/292 52/114/293 51/116/294
f 27/117/295 19/105/296 53/118/297
f 53/118/298 19/105/299 50/107/300
f 42/113/301 43/119/302 52/114/303
f 52/114/304 43/119/305 54/120/306
f 15/121/307 27/117/308 55/122/309
f 55/122/310 27/117/311 53/118/312
f 43/119/313 44/123/314 54/120/315
f 54/120/316 44/123/317 56/124/318
f 44/125/319 15/126/320 56/127/321
f 56/127/322 15/126/323 55/128/324
f 34/129/325 33/130/326 58/131/327
f 58/131/328 33/130/329 57/132/330
f 33/133/331 10/134/332 57/135/333
f 57/135/334 10/134/335 59/136/336
f 18/137/337 60/138/338 10/139/339
f 10/139/340 60/138/341 59/140/342
f 35/141/343 34/129/344 61/142/345
f 61/142/346 34/129/347 58/131/348
f 18/137/349 26/143/350 60/138/351
f 60/138/352 26/143/353 62/144/354
f 36/145/355 35/141/356 63/146/357
f 63/146/358 35/141/359 61/142/360
f 26/143/361 11/147/362 62/144/363
f 62/144/364 11/147/365 64/148/366
f 11/149/367 36/150/368 64/151/369
f 64/151/370 36/150/371 63/152/372
